<?xml version="1.0" encoding="iso-8859-1"?>
<!-- Generator: Adobe Illustrator 19.0.0, SVG Export Plug-In . SVG Version: 6.00 Build 0)  -->
<svg version="1.1" id="Capa_1" xmlns="http://www.w3.org/2000/svg" xmlns:xlink="http://www.w3.org/1999/xlink" x="0px" y="0px"
	 viewBox="0 0 382.4 382.4" style="enable-background:new 0 0 382.4 382.4;" xml:space="preserve">
<g>
	<path style="fill:#EAEBC2;" d="M310.2,34.4H71.8c-30,0-54.8,24.8-54.8,54.8v238.4c0,30,24.8,54.8,54.8,54.8h238.4
		c30,0,54.8-24.8,54.8-54.8V89.2C365,58.8,340.6,34.4,310.2,34.4z"/>
	<path style="fill:#EE464A;" d="M310.2,34.4H71.8c-30,0-54.8,24.8-54.8,54.8V132h348.4V89.2C365,58.8,340.6,34.4,310.2,34.4z"/>
</g>
<g>
	<path style="fill:#002535;" d="M105.8,68.8c-4.8,0-8.8-4-8.8-8.8V8.8C97,4,101,0,105.8,0s8.8,4,8.8,8.8v50.8
		C115,64.8,111,68.8,105.8,68.8z"/>
	<path style="fill:#002535;" d="M276.2,68.8c-4.8,0-8.8-4-8.8-8.8V8.8c0-4.8,4-8.8,8.8-8.8s8.8,4,8.8,8.8v50.8
		C285,64.8,281,68.8,276.2,68.8z"/>
</g>
<g>
</g>
<g>
</g>
<g>
</g>
<g>
</g>
<g>
</g>
<g>
</g>
<g>
</g>
<g>
</g>
<g>
</g>
<g>
</g>
<g>
</g>
<g>
</g>
<g>
</g>
<g>
</g>
<g>
</g>
</svg>
