<?xml version="1.0" encoding="UTF-8"?> <!-- Generator: Adobe Illustrator 19.0.0, SVG Export Plug-In . SVG Version: 6.00 Build 0) --> <svg xmlns="http://www.w3.org/2000/svg" xmlns:xlink="http://www.w3.org/1999/xlink" id="Capa_1" x="0px" y="0px" viewBox="-41 164.9 512 512" style="enable-background:new -41 164.9 512 512;" xml:space="preserve"> <style type="text/css"> .st0{fill:#333333;} .st1{fill:#E58B18;} </style> <g> <g> <path class="st0" d="M321.9,164.9h-294c-16.5,0-30,13.5-30,30v102c0,5.5,4.5,10,10,10s10-4.5,10-10v-102c0-5.5,4.5-10,10-10h294 c5.5,0,10,4.5,10,10v372c0,5.5-4.5,10-10,10h-294c-5.5,0-10-4.5-10-10V381.2c0-5.5-4.5-10-10-10s-10,4.5-10,10v185.7 c0,16.5,13.5,30,30,30h294c16.5,0,30-13.5,30-30v-372C351.9,178.3,338.5,164.9,321.9,164.9z"></path> </g> </g> <g> <g> <path class="st0" d="M15,334.6c-1.9-1.9-4.4-2.9-7.1-2.9s-5.2,1.1-7.1,2.9c-1.9,1.9-2.9,4.5-2.9,7.1c0,2.6,1.1,5.2,2.9,7.1 c1.9,1.9,4.4,2.9,7.1,2.9c2.6,0,5.2-1.1,7.1-2.9c1.9-1.9,2.9-4.4,2.9-7.1C17.9,339,16.9,336.5,15,334.6z"></path> </g> </g> <g> <g> <path class="st0" d="M55.1,619.9c-1.9-1.9-4.4-2.9-7.1-2.9c-2.6,0-5.2,1.1-7.1,2.9c-1.9,1.9-2.9,4.4-2.9,7.1 c0,2.6,1.1,5.2,2.9,7.1c1.9,1.9,4.4,2.9,7.1,2.9c2.6,0,5.2-1.1,7.1-2.9c1.9-1.9,2.9-4.4,2.9-7.1C58,624.3,56.9,621.7,55.1,619.9z"></path> </g> </g> <g> <g> <path class="st0" d="M382,205c-5.5,0-10,4.5-10,10v392c0,5.5-4.5,10-10,10H88c-5.5,0-10,4.5-10,10s4.5,10,10,10h274 c16.5,0,30-13.5,30-30V215C392,209.4,387.5,205,382,205z"></path> </g> </g> <g> <g> <path class="st0" d="M422.1,244.9c-5.5,0-10,4.5-10,10v392c0,5.5-4.5,10-10,10h-314c-5.5,0-10,4.5-10,10s4.5,10,10,10h314 c16.5,0,30-13.5,30-30v-392C432.1,249.4,427.6,244.9,422.1,244.9z"></path> </g> </g> <g> <g> <path class="st0" d="M159.9,238.9h-96c-5.5,0-10,4.5-10,10v96c0,5.5,4.5,10,10,10h96c5.5,0,10-4.5,10-10v-96 C169.9,243.4,165.5,238.9,159.9,238.9z M149.9,334.9h-76v-76h76V334.9z"></path> </g> </g> <g> <g> <path class="st1" d="M127.8,400.3c-3.9-3.9-10.2-3.9-14.1,0L87,426.9l-12.4-12.4c-3.9-3.9-10.2-3.9-14.1,0 c-3.9,3.9-3.9,10.2,0,14.1L80,448.1c1.9,1.9,4.4,2.9,7.1,2.9c2.7,0,5.2-1.1,7.1-2.9l33.7-33.7 C131.7,410.5,131.7,404.2,127.8,400.3z"></path> </g> </g> <g> <g> <path class="st0" d="M291.6,413.9H174.9c-5.5,0-10,4.5-10,10s4.5,10,10,10h116.7c5.5,0,10-4.5,10-10S297.1,413.9,291.6,413.9z"></path> </g> </g> <g> <g> <path class="st0" d="M285.9,238.9h-70c-5.5,0-10,4.5-10,10c0,5.5,4.5,10,10,10h70c5.5,0,10-4.5,10-10 C295.9,243.4,291.5,238.9,285.9,238.9z"></path> </g> </g> <g> <g> <path class="st0" d="M285.9,286.9h-70c-5.5,0-10,4.5-10,10s4.5,10,10,10h70c5.5,0,10-4.5,10-10 C295.9,291.4,291.5,286.9,285.9,286.9z"></path> </g> </g> <g> <g> <path class="st0" d="M285.9,334.9h-70c-5.5,0-10,4.5-10,10c0,5.5,4.5,10,10,10h70c5.5,0,10-4.5,10-10 C295.9,339.4,291.5,334.9,285.9,334.9z"></path> </g> </g> <g> <g> <path class="st1" d="M127.8,476.7c-3.9-3.9-10.2-3.9-14.1,0L87,503.2l-12.4-12.4c-3.9-3.9-10.2-3.9-14.1,0 c-3.9,3.9-3.9,10.2,0,14.1L80,524.5c1.9,1.9,4.4,2.9,7.1,2.9c2.7,0,5.2-1.1,7.1-2.9l33.7-33.7 C131.7,486.9,131.7,480.6,127.8,476.7z"></path> </g> </g> <g> <g> <path class="st0" d="M291.6,489.9H174.9c-5.5,0-10,4.5-10,10s4.5,10,10,10h116.7c5.5,0,10-4.5,10-10S297.1,489.9,291.6,489.9z"></path> </g> </g> </svg> 