<?xml version="1.0" encoding="UTF-8"?> <svg xmlns="http://www.w3.org/2000/svg" viewBox="0 0 214 205"><title>ico-estudios</title><g id="Capa_2" data-name="Capa 2"><g id="Capa_1-2" data-name="Capa 1"><path d="M159.64,33.9h-24l1.62,7.5a8.39,8.39,0,0,1,.08,2.78H154.5V165.27h-95V44.18H76.65a8.72,8.72,0,0,1,.09-2.79l1.62-7.49h-24A5.13,5.13,0,0,0,49.23,39V170.41a5.13,5.13,0,0,0,5.13,5.13H159.64a5.13,5.13,0,0,0,5.13-5.13V39a5.14,5.14,0,0,0-5.13-5.14Z" style="fill:#009eb8"></path><path d="M142.41,71H107.32a5.14,5.14,0,1,0,0,10.27h35.09a5.14,5.14,0,0,0,0-10.27Z" style="fill:#009eb8"></path><path d="M142.41,102.54H107.32a5.14,5.14,0,1,0,0,10.27h35.09a5.14,5.14,0,0,0,0-10.27Z" style="fill:#009eb8"></path><path d="M68.28,72.24a5.14,5.14,0,0,0-.62,7.24l7.49,8.88a5.14,5.14,0,0,0,3.93,1.82h.37a5.13,5.13,0,0,0,4-2.43L96.92,65.92a5.13,5.13,0,1,0-8.73-5.39L78.43,76.32l-2.92-3.46a5.13,5.13,0,0,0-7.23-.62Z" style="fill:#009eb8"></path><path d="M80.58,100a7.7,7.7,0,1,0,7.7,7.7,7.7,7.7,0,0,0-7.7-7.7Z" style="fill:#009eb8"></path><path d="M142.41,133.35H107.32a5.14,5.14,0,1,0,0,10.27h35.09a5.14,5.14,0,0,0,0-10.27Z" style="fill:#009eb8"></path><path d="M80.58,130.79a7.7,7.7,0,1,0,7.7,7.7,7.71,7.71,0,0,0-7.7-7.7Z" style="fill:#009eb8"></path><path d="M85.21,46.74h43.57a3.52,3.52,0,0,0,3.45-4.27l-3.61-16.69A3.53,3.53,0,0,0,125.17,23H88.82a3.53,3.53,0,0,0-3.45,2.79L81.76,42.47a3.54,3.54,0,0,0,.71,3,3.48,3.48,0,0,0,2.74,1.31Z" style="fill:#009eb8"></path><rect width="214" height="205" style="fill:none"></rect></g></g></svg> 