<?xml version="1.0" encoding="iso-8859-1"?>
<!-- Generator: Adobe Illustrator 19.0.0, SVG Export Plug-In . SVG Version: 6.00 Build 0)  -->
<svg version="1.1" id="Capa_1" xmlns="http://www.w3.org/2000/svg" xmlns:xlink="http://www.w3.org/1999/xlink" x="0px" y="0px"
	 viewBox="0 0 514.395 514.395" style="enable-background:new 0 0 514.395 514.395;" xml:space="preserve">
<path style="fill:#415A6B;" d="M254.244,59.315L254.244,59.315c-7.467,0-12.8,6.4-12.8,12.8v401.067h26.667V72.115
	C268.111,64.649,261.711,59.315,254.244,59.315z"/>
<path style="fill:#FFD15C;" d="M309.711,482.782h-108.8c-16,0-29.867,12.8-29.867,29.867h168.533
	C338.511,496.649,325.711,482.782,309.711,482.782z"/>
<rect x="214.778" y="462.515" style="fill:#F7B64C;" width="78.933" height="20.267"/>
<path style="fill:#F3705A;" d="M513.444,259.849c-82.133-76.8-164.267,76.8-245.333,0c0-55.467,0-112,0-167.467
	c82.133,76.8,164.267-76.8,245.333,0C513.444,147.849,513.444,204.382,513.444,259.849z"/>
<path style="fill:#344A5E;" d="M128.378,497.715l7.467-2.133c0,0,0-5.333-5.333-6.4c-6.4-1.067-13.867-3.2-16-5.333
	c-2.133-2.133-13.867-16-13.867-16l-30.933,7.467c0,0-2.133,6.4-1.067,11.733s1.067,5.333,1.067,5.333s10.667-1.067,19.2,1.067
	c7.467,2.133,7.467,2.133,7.467,2.133s5.333,3.2,10.667,4.267C112.378,500.915,128.378,497.715,128.378,497.715z"/>
<path style="fill:#415A6B;" d="M9.978,251.315c0,0,0,13.867,5.333,27.733c5.333,13.867,3.2,49.067,2.133,57.6
	c-1.067,8.533-7.467,25.6-7.467,33.067c0,7.467,2.133,61.867,0,72.533c-2.133,10.667-1.067,49.067-1.067,49.067
	s12.8-6.4,21.333-8.533c8.533-2.133,11.733-1.067,11.733-1.067s0-23.467,0-28.8c0-5.333,1.067-22.4,2.133-28.8
	c1.067-6.4,0-7.467,2.133-13.867c2.133-6.4,5.333-22.4,5.333-33.067c0-10.667,7.467-39.467,9.6-46.933
	c2.133-7.467,3.2-19.2,3.2-19.2s2.133,19.2,3.2,32c1.067,12.8,3.2,24.533,2.133,27.733c-1.067,3.2-4.267,8.533-4.267,11.733
	c0,4.267,1.067,16,1.067,20.267c0,4.267,1.067,40.533,2.133,43.733s0,5.333,0,8.533s1.067,12.8,1.067,12.8l-2.133,9.6
	c0,0,6.4,1.067,18.133-3.2c11.733-4.267,18.133-4.267,18.133-4.267s-2.133-10.667-3.2-14.933c-1.067-4.267,3.2-30.933,3.2-40.533
	c0-8.533,0-6.4,0-11.733c0-5.333,1.067-10.667,1.067-12.8s0-7.467-1.067-11.733c-1.067-4.267,3.2-23.467,4.267-29.867
	c1.067-6.4,8.533-45.867,5.333-76.8s-16-85.333-16-85.333l-52.267,6.4L9.978,251.315z"/>
<g>
	<path style="fill:#FFD15C;" d="M43.044,51.849c0,0,3.2,8.533,3.2,18.133c0,9.6,0,9.6,0,9.6l34.133,10.667l-3.2-11.733l1.067-11.733
		c0,0,8.533-7.467,7.467-25.6s-1.067-18.133-1.067-18.133s0-12.8-10.667-14.933s-25.6,0-28.8,4.267
		C43.044,16.649,39.844,44.382,43.044,51.849z"/>
	<path style="fill:#FFD15C;" d="M36.644,46.515c1.067,4.267,4.267,7.467,6.4,6.4s3.2-4.267,1.067-8.533
		c-1.067-4.267-4.267-7.467-6.4-6.4S34.511,42.249,36.644,46.515z"/>
	<path style="fill:#FFD15C;" d="M86.778,44.382c0,4.267-3.2,8.533-5.333,8.533s-3.2-4.267-3.2-8.533s3.2-8.533,5.333-8.533
		S87.844,40.115,86.778,44.382z"/>
</g>
<path style="fill:#415A6B;" d="M38.778,15.582c3.2-6.4,12.8-12.8,20.267-14.933c7.467-2.133,18.133,1.067,23.467,8.533
	c4.267,6.4,5.333,21.333,4.267,25.6c-1.067,3.2-2.133,7.467-2.133,8.533h-1.067c0-2.133,1.067-9.6,0-11.733
	c-1.067-3.2-2.133-7.467-2.133-10.667s-1.067-6.4-6.4-7.467c-5.333-2.133-23.467,0-25.6,1.067c-2.133,2.133-3.2,5.333-3.2,8.533
	s-3.2,7.467-3.2,9.6s0,10.667,0,10.667h-2.133c0,0-2.133-3.2-2.133-7.467C37.711,33.715,36.644,23.049,38.778,15.582z"/>
<path style="fill:#F7B64C;" d="M61.178,68.915c10.667,3.2,17.067-3.2,17.067-3.2l-1.067,12.8l1.067,5.333
	c-27.733-8.533-34.133-25.6-34.133-25.6S50.511,65.715,61.178,68.915z"/>
<polygon style="fill:#CED6E0;" points="70.778,81.715 69.711,81.715 44.111,84.915 76.111,167.049 87.844,140.382 85.711,92.382 
	80.378,83.849 "/>
<g>
	<path style="fill:#F3705A;" d="M65.444,107.315l9.6,41.6h11.733l2.133-7.467c0,0-4.267-28.8-6.4-36.267
		c-1.067-8.533-5.333-13.867-5.333-13.867l-6.4-3.2c0,0,0,0-1.067,4.267C69.711,95.582,65.444,107.315,65.444,107.315z"/>
	<path style="fill:#F3705A;" d="M63.311,83.849c0,0,5.333,3.2,6.4,7.467c2.133-1.067,4.267-1.067,6.4,0c0,0,1.067-8.533,1.067-9.6
		l-7.467-1.067h-1.067L63.311,83.849z"/>
</g>
<ellipse style="fill:#415A6B;" cx="109.178" cy="149.982" rx="11.733" ry="14.933"/>
<g>
	<path style="fill:#344A5E;" d="M86.778,90.249c0,0,1.067,1.067,6.4,3.2s13.867,2.133,18.133,7.467
		c3.2,5.333,5.333,21.333,2.133,36.267s-8.533,42.667-3.2,70.4c5.333,27.733,8.533,66.133,8.533,66.133s-9.6,4.267-13.867-7.467
		c-5.333-11.733-17.067-73.6-17.067-73.6s-2.133-37.333,0-51.2c2.133-14.933-1.067-45.867-2.133-48
		C84.644,91.315,86.778,90.249,86.778,90.249z"/>
	<path style="fill:#344A5E;" d="M34.511,80.649c0,0-6.4,5.333-12.8,5.333c-7.467,0-18.133,1.067-20.267,9.6s3.2,34.133,5.333,42.667
		c2.133,8.533,13.867,37.333,10.667,64s-12.8,65.067-12.8,65.067s35.2,4.267,51.2,4.267c16-1.067,23.467-7.467,26.667-14.933
		c3.2-7.467,8.533-50.133,8.533-59.733c-1.067-9.6-1.067-12.8-1.067-12.8s-9.6-40.533-19.2-66.133S40.911,77.449,40.911,77.449
		L34.511,80.649z"/>
</g>
<g>
	<path style="fill:#F3F3F3;" d="M45.178,66.782c0,0,3.2,3.2,7.467,5.333s16,8.533,16,8.533l-10.667,12.8L40.911,75.315
		L45.178,66.782z"/>
	<path style="fill:#F3F3F3;" d="M70.778,81.715L70.778,81.715c4.267,3.2,7.467,7.467,10.667,12.8v1.067c0,0-1.067-9.6-2.133-13.867
		c0-4.267-2.133-8.533-2.133-8.533S75.044,79.582,70.778,81.715z"/>
</g>
<g>
	<path style="fill:#415A6B;" d="M43.044,72.115c0,0,2.133,3.2,4.267,5.333c3.2,2.133,14.933,11.733,23.467,28.8
		s18.133,58.667,19.2,77.867c0,0-13.867-52.267-24.533-68.267S47.311,94.515,47.311,94.515l3.2-5.333h-6.4
		c0,0-8.533-7.467-9.6-7.467c-1.067-1.067-1.067-1.067,0-2.133s3.2-3.2,5.333-5.333S43.044,72.115,43.044,72.115z"/>
	<path style="fill:#415A6B;" d="M80.378,83.849c0,0,6.4,23.467,6.4,34.133s-5.333,35.2,0,52.267c0,0,4.267-25.6,6.4-33.067
		c2.133-7.467,3.2-35.2,1.067-41.6l-6.4-1.067l3.2-1.067c0,0-5.333-3.2-7.467-5.333C81.444,84.915,80.378,83.849,80.378,83.849z"/>
	<path style="fill:#415A6B;" d="M78.244,159.582v22.4c0,0,4.267,0,9.6,1.067c4.267,0,8.533,1.067,11.733,1.067s6.4,1.067,9.6,2.133
		c5.333,1.067,11.733,3.2,17.067,3.2c8.533,0,13.867-7.467,13.867-11.733s0-18.133-1.067-20.267s-6.4-9.6-8.533-12.8
		c-2.133-3.2-4.267-8.533-5.333-10.667c-1.067-2.133-1.067-5.333-3.2-9.6c-1.067-4.267-1.067-5.333-2.133-11.733
		c-2.133-6.4-8.533-10.667-8.533-10.667c3.2,5.333,5.333,21.333,2.133,36.267c0,1.067-1.067,3.2-1.067,4.267l0,0l2.133,17.067
		c0,0-1.067,0-5.333,1.067c-3.2,0-14.933,1.067-22.4,1.067C81.444,159.582,78.244,159.582,78.244,159.582z"/>
</g>
<path style="fill:#344A5E;" d="M78.244,159.582c0,0,3.2,0,8.533,0c8.533,0,20.267-1.067,22.4-1.067c1.067,0,2.133,0,2.133,0
	c0,2.133,0,5.333,0,8.533v1.067h-1.067c0,0-14.933,1.067-24.533,2.133c-2.133,0-5.333,0-7.467,0h-1.067v-10.667H78.244z"/>
<path style="fill:#FFD15C;" d="M120.911,155.315c0,0-4.267,4.267-11.733,3.2l-11.733-9.6l3.2-8.533c0,0,6.4,0,13.867,7.467
	C120.911,154.249,120.911,155.315,120.911,155.315z"/>
<path id="SVGCleanerId_0" style="fill:#415A6B;" d="M2.511,115.849c2.133,17.067,10.667,34.133,24.533,45.867
	c1.067,1.067,2.133,1.067,2.133,2.133c5.333,4.267,14.933,5.333,17.067,5.333s5.333,0,7.467,0s3.2,1.067,6.4,1.067
	c3.2,0,13.867,0,18.133,0c1.067,0,4.267,0,6.4,0c9.6-1.067,24.533-2.133,24.533-2.133c1.067-23.467-9.6-26.667-9.6-26.667
	s-9.6-2.133-14.933-2.133c-1.067,0-4.267,0-6.4,0c-8.533-1.067-21.333-2.133-23.467-3.2c-3.2-1.067-3.2,0-5.333,1.067
	c-1.067,1.067-1.067,2.133-1.067-1.067c0-3.2-1.067,0-2.133-2.133s-4.267-9.6-8.533-18.133c-4.267-10.667-11.733-22.4-20.267-26.667
	c-2.133-1.067-4.267-2.133-5.333-2.133l0,0c-5.333,1.067-8.533,3.2-10.667,8.533C1.444,99.849,1.444,107.315,2.511,115.849z"/>
<g>
	<path id="SVGCleanerId_0_1_" style="fill:#415A6B;" d="M2.511,115.849c2.133,17.067,10.667,34.133,24.533,45.867
		c1.067,1.067,2.133,1.067,2.133,2.133c5.333,4.267,14.933,5.333,17.067,5.333s5.333,0,7.467,0s3.2,1.067,6.4,1.067
		c3.2,0,13.867,0,18.133,0c1.067,0,4.267,0,6.4,0c9.6-1.067,24.533-2.133,24.533-2.133c1.067-23.467-9.6-26.667-9.6-26.667
		s-9.6-2.133-14.933-2.133c-1.067,0-4.267,0-6.4,0c-8.533-1.067-21.333-2.133-23.467-3.2c-3.2-1.067-3.2,0-5.333,1.067
		c-1.067,1.067-1.067,2.133-1.067-1.067c0-3.2-1.067,0-2.133-2.133s-4.267-9.6-8.533-18.133
		c-4.267-10.667-11.733-22.4-20.267-26.667c-2.133-1.067-4.267-2.133-5.333-2.133l0,0c-5.333,1.067-8.533,3.2-10.667,8.533
		C1.444,99.849,1.444,107.315,2.511,115.849z"/>
</g>
<path style="fill:#344A5E;" d="M52.644,509.449l8.533-2.133v-1.067c0,0,0-5.333-4.267-6.4s-9.6-5.333-11.733-7.467
	c-2.133-2.133-8.533-13.867-8.533-13.867l-28.8,7.467c0,0-2.133,6.4,0,10.667c2.133,4.267,1.067,4.267,1.067,4.267
	s5.333,2.133,7.467,3.2c1.067,1.067,3.2,4.267,6.4,5.333C27.044,509.449,44.111,511.582,52.644,509.449z"/>
<g>
	<path style="fill:#415A6B;" d="M62.244,506.249c0,0-12.8,3.2-23.467,3.2s-17.067-1.067-18.133-3.2c-1.067-2.133-3.2-4.267-6.4-6.4
		s-5.333-3.2-5.333-3.2v7.467c0,0,2.133,2.133,6.4,3.2v-3.2c0,0,2.133,0,4.267,4.267c2.133,4.267,16,7.467,28.8,5.333
		C61.178,510.515,64.378,509.449,62.244,506.249z"/>
	<path style="fill:#415A6B;" d="M135.844,495.582c0,0-7.467,1.067-20.267,2.133c-12.8,1.067-16-1.067-20.267-3.2
		c-4.267-2.133-24.533-6.4-27.733-7.467c0,0-1.067,6.4,0,7.467c1.067,0,11.733,2.133,18.133,2.133v-3.2c0,0,6.4,1.067,10.667,3.2
		c4.267,2.133,14.933,5.333,29.867,3.2C127.311,499.849,136.911,498.782,135.844,495.582z"/>
</g>
<g>
</g>
<g>
</g>
<g>
</g>
<g>
</g>
<g>
</g>
<g>
</g>
<g>
</g>
<g>
</g>
<g>
</g>
<g>
</g>
<g>
</g>
<g>
</g>
<g>
</g>
<g>
</g>
<g>
</g>
</svg>
