<?xml version="1.0" encoding="iso-8859-1"?>
<!-- Generator: Adobe Illustrator 19.0.0, SVG Export Plug-In . SVG Version: 6.00 Build 0)  -->
<svg version="1.1" id="Capa_1" xmlns="http://www.w3.org/2000/svg" xmlns:xlink="http://www.w3.org/1999/xlink" x="0px" y="0px"
	 viewBox="0 0 512 512" style="enable-background:new 0 0 512 512;" xml:space="preserve">
<path style="fill:#AFB6BB;" d="M105.931,132.414c-4.873,0-8.828-3.955-8.828-8.828v-35.31c0-4.873,3.955-8.828,8.828-8.828
	c4.873,0,8.828,3.955,8.828,8.828v35.31C114.759,128.459,110.804,132.414,105.931,132.414z"/>
<circle style="fill:#DD352E;" cx="105.931" cy="44.138" r="44.138"/>
<path style="fill:#AFB6BB;" d="M406.069,132.414c-4.873,0-8.828-3.955-8.828-8.828v-35.31c0-4.873,3.955-8.828,8.828-8.828
	s8.828,3.955,8.828,8.828v35.31C414.897,128.459,410.942,132.414,406.069,132.414z"/>
<circle style="fill:#DD352E;" cx="406.069" cy="44.138" r="44.138"/>
<g>
	<rect x="70.621" y="123.586" style="fill:#E7ECED;" width="70.621" height="44.138"/>
	<rect x="370.759" y="123.586" style="fill:#E7ECED;" width="70.621" height="44.138"/>
	<rect x="79.448" y="238.345" style="fill:#E7ECED;" width="52.966" height="70.621"/>
	<rect x="379.586" y="238.345" style="fill:#E7ECED;" width="52.966" height="70.621"/>
	<rect x="379.586" y="379.586" style="fill:#E7ECED;" width="52.966" height="105.931"/>
	<rect x="79.448" y="379.586" style="fill:#E7ECED;" width="52.966" height="105.931"/>
</g>
<rect y="158.897" style="fill:#EBBA16;" width="512" height="88.276"/>
<g>
	<polygon style="fill:#DC691D;" points="70.621,247.172 0,247.172 88.276,158.897 158.897,158.897 	"/>
	<polygon style="fill:#DC691D;" points="423.724,247.172 353.103,247.172 441.379,158.897 512,158.897 	"/>
	<polygon style="fill:#DC691D;" points="247.172,247.172 176.552,247.172 264.828,158.897 335.448,158.897 	"/>
</g>
<rect y="300.138" style="fill:#EBBA16;" width="512" height="88.276"/>
<g>
	<polygon style="fill:#DC691D;" points="150.069,388.414 44.138,388.414 132.414,300.138 238.345,300.138 	"/>
	<polygon style="fill:#DC691D;" points="370.759,388.414 264.828,388.414 353.103,300.138 459.034,300.138 	"/>
</g>
<g>
	<path style="fill:#AFB6BB;" d="M158.897,512H52.966l0,0c0-19.5,15.81-35.31,35.31-35.31h35.31
		C143.086,476.69,158.897,492.5,158.897,512L158.897,512z"/>
	<path style="fill:#AFB6BB;" d="M459.034,512H353.103l0,0c0-19.5,15.81-35.31,35.31-35.31h35.31
		C443.224,476.69,459.034,492.5,459.034,512L459.034,512z"/>
</g>
<g>
</g>
<g>
</g>
<g>
</g>
<g>
</g>
<g>
</g>
<g>
</g>
<g>
</g>
<g>
</g>
<g>
</g>
<g>
</g>
<g>
</g>
<g>
</g>
<g>
</g>
<g>
</g>
<g>
</g>
</svg>
