<?xml version="1.0" encoding="iso-8859-1"?>
<!-- Generator: Adobe Illustrator 19.0.0, SVG Export Plug-In . SVG Version: 6.00 Build 0)  -->
<svg version="1.1" id="Layer_1" xmlns="http://www.w3.org/2000/svg" xmlns:xlink="http://www.w3.org/1999/xlink" x="0px" y="0px"
	 viewBox="0 0 512.002 512.002" style="enable-background:new 0 0 512.002 512.002;" xml:space="preserve">
<path style="fill:#FED9A8;" d="M300.841,279.427c-6.198,3.764-12.678,6.606-19.228,8.232l-1.006,0.25
	c-22.02,5.467-28.457,5.43-50.459-0.109c-6.486-1.632-12.901-4.458-19.04-8.192l-7.649,26.038l-28.739,15.392
	c46.932,39.41,115.631,39.41,162.563,0l-28.739-15.392L300.841,279.427z"/>
<path style="fill:#0ee62c;" d="M501.936,408.821c-2.779-31.985-25.074-58.707-55.631-66.675l-102.694-26.781l0,0
	c-48.959,46.981-126.261,46.981-175.22,0l0,0L65.697,342.146c-30.556,7.969-52.851,34.69-55.631,66.675L2.45,496.475
	c-0.726,8.347,5.855,15.523,14.233,15.523h238.239h2.157h238.239c8.379,0,14.959-7.177,14.233-15.523L501.936,408.821z"/>
<path style="fill:#0ee62c;" d="M509.552,496.475l-7.616-87.654c-2.779-31.985-25.074-58.707-55.629-66.675l-102.695-26.781
	c0,0-4.474,4.138-6.793,6.065l79.436,20.716c30.555,7.969,52.851,34.69,55.63,66.675l7.616,87.654
	c0.725,8.348-5.855,15.523-14.233,15.523h30.051C503.696,512,510.276,504.823,509.552,496.475z"/>
<path style="fill:#FE9901;" d="M321.296,223.299H190.705c-24.109,0-43.653-19.544-43.653-43.653v-70.166
	c0-39.389,31.931-71.32,71.32-71.32h75.257c39.389,0,71.32,31.931,71.32,71.32v70.166
	C364.949,203.756,345.406,223.299,321.296,223.299z"/>
<path style="fill:#FED9A8;" d="M164.258,140.839v62.701c0,34.918,32.029,75.736,65.89,84.26l0,0
	c22.002,5.539,28.439,5.577,50.459,0.109l1.006-0.25c33.979-8.437,66.131-49.31,66.131-84.321v-62.5L164.258,140.839
	L164.258,140.839z"/>
<g>
	<path style="fill:#4D4D4D;" d="M203.981,177.509c-4.445,0-8.049-3.604-8.049-8.049v-6.45c0-4.445,3.604-8.049,8.049-8.049
		s8.049,3.604,8.049,8.049v6.45C212.03,173.905,208.426,177.509,203.981,177.509z"/>
	<path style="fill:#4D4D4D;" d="M307.907,177.509c-4.445,0-8.049-3.604-8.049-8.049v-6.45c0-4.445,3.604-8.049,8.049-8.049
		c4.445,0,8.049,3.604,8.049,8.049v6.45C315.957,173.905,312.353,177.509,307.907,177.509z"/>
</g>
<path style="fill:#FED9A8;" d="M164.258,140.839v62.701c0,34.918,32.029,75.736,65.89,84.26l0,0
	c22.002,5.539,28.439,5.577,50.459,0.109l1.006-0.25c33.979-8.437,66.131-49.31,66.131-84.321v-62.5L164.258,140.839
	L164.258,140.839z"/>
<g>
	<rect x="164.261" y="140.842" style="fill:#F4C08E;" width="183.482" height="18.546"/>
	<path style="fill:#F4C08E;" d="M317.907,140.839v62.5c0,35.01-32.152,75.885-66.131,84.321l-1.006,0.25
		c-3.792,0.941-7.115,1.716-10.141,2.331c-3.117-0.639-6.547-1.45-10.481-2.441c-6.486-1.632-12.901-4.458-19.04-8.192
		l-4.496,15.304c7.468,5.202,15.447,9.097,23.536,11.133c22.002,5.539,28.439,5.577,50.459,0.109l1.006-0.25
		c8.156-2.025,16.201-5.934,23.726-11.166l-4.498-15.311c25.95-15.756,46.903-47.828,46.903-76.089v-62.5L317.907,140.839
		L317.907,140.839z"/>
</g>
<g>
	<path style="fill:#FED9A8;" d="M356.071,198.339h-8.327v-44.878h8.327c7.096,0,12.848,5.753,12.848,12.848v19.182
		C368.919,192.586,363.167,198.339,356.071,198.339z"/>
	<path style="fill:#FED9A8;" d="M155.931,198.339h8.327v-44.878h-8.327c-7.096,0-12.848,5.753-12.848,12.848v19.182
		C143.083,192.586,148.834,198.339,155.931,198.339z"/>
</g>
<path style="fill:#FDBF00;" d="M273.424,12.539h-34.847c-54.962,0-99.517,44.555-99.517,99.517v37.84h233.88v-37.84
	C372.941,57.093,328.386,12.539,273.424,12.539z"/>
<path style="fill:#E5A900;" d="M273.424,12.539h-29.706c54.961,0,99.517,44.555,99.517,99.517v37.84h29.706v-37.84
	C372.941,57.093,328.386,12.539,273.424,12.539z"/>
<path style="fill:#FECE00;" d="M277.965,0h-43.928c-6.896,0-12.232,5.95-11.379,12.688l10.527,83.207
	c1.255,8.808,8.907,15.36,17.939,15.36h9.753c9.032,0,16.685-6.552,17.939-15.36l10.527-83.207C290.196,5.95,284.861,0,277.965,0z"
	/>
<path style="fill:#FDBF00;" d="M378.158,123.128H133.844c-4.842,0-8.767,3.925-8.767,8.767v9.233c0,4.842,3.925,8.767,8.767,8.767
	h244.313c4.842,0,8.767-3.925,8.767-8.767v-9.233C386.925,127.053,382.999,123.128,378.158,123.128z"/>
<path id="SVGCleanerId_0" style="fill:#E5A900;" d="M378.158,149.896H133.844c-4.842,0-8.767-3.925-8.767-8.767v-9.233
	c0-0.313,0.018-0.624,0.05-0.928c0.464,4.406,4.189,7.839,8.717,7.839h244.313c4.528,0,8.253-3.433,8.717-7.839
	c0.032,0.305,0.05,0.615,0.05,0.928v9.233C386.925,145.971,382.999,149.896,378.158,149.896z"/>
<g>
	<path id="SVGCleanerId_0_1_" style="fill:#E5A900;" d="M378.158,149.896H133.844c-4.842,0-8.767-3.925-8.767-8.767v-9.233
		c0-0.313,0.018-0.624,0.05-0.928c0.464,4.406,4.189,7.839,8.717,7.839h244.313c4.528,0,8.253-3.433,8.717-7.839
		c0.032,0.305,0.05,0.615,0.05,0.928v9.233C386.925,145.971,382.999,149.896,378.158,149.896z"/>
</g>
<g>
	<path style="fill:#8C553C;" d="M204.038,184.843c-4.445,0-8.049-3.604-8.049-8.049v-6.45c0-4.445,3.604-8.049,8.049-8.049
		c4.445,0,8.049,3.604,8.049,8.049v6.45C212.087,181.239,208.483,184.843,204.038,184.843z"/>
	<path style="fill:#8C553C;" d="M307.964,184.843c-4.445,0-8.049-3.604-8.049-8.049v-6.45c0-4.445,3.604-8.049,8.049-8.049
		s8.049,3.604,8.049,8.049v6.45C316.014,181.239,312.41,184.843,307.964,184.843z"/>
</g>
<g>
	<path style="fill:#F4C08E;" d="M352.413,188.482h-4.67v-25.164h4.67c3.979,0,7.205,3.225,7.205,7.205v10.756
		C359.617,185.256,356.392,188.482,352.413,188.482z"/>
	<path style="fill:#F4C08E;" d="M159.588,188.482h4.67v-25.164h-4.67c-3.979,0-7.205,3.225-7.205,7.205v10.756
		C152.384,185.256,155.61,188.482,159.588,188.482z"/>
</g>
<path style="fill:#FDBF00;" d="M421.587,335.7l-40.842-10.651c0,0.061-0.01,0.12-0.01,0.181v42.57
	c0,26.298-17.353,49.441-42.597,56.811l-1.517,0.442c-53.233,15.541-109.814,15.428-162.985-0.325l0,0
	c-25.131-7.446-42.371-30.534-42.371-56.745v-42.754c0-0.061-0.009-0.12-0.01-0.181L90.413,335.7V512h164.508h2.157h164.508
	L421.587,335.7L421.587,335.7z"/>
<path style="fill:#E5A900;" d="M391.919,327.963c0,0.061-0.038,184.037-0.038,184.037h29.705V335.7L391.919,327.963z"/>
<rect x="147.959" y="465.799" style="fill:#FE9901;" width="216.076" height="46.203"/>
<path style="fill:#F2F2F2;" d="M221.739,229.412c-3.019,0-5.158,3.032-4.054,5.842c6.01,15.283,20.899,26.102,38.316,26.102
	c17.417,0,32.306-10.818,38.316-26.101c1.104-2.809-1.035-5.842-4.054-5.842h-68.525V229.412z"/>
<g>
	<path style="fill:#8A6747;" d="M204.038,184.843c-4.445,0-8.049-3.604-8.049-8.049v-6.45c0-4.445,3.604-8.049,8.049-8.049
		c4.445,0,8.049,3.604,8.049,8.049v6.45C212.087,181.239,208.483,184.843,204.038,184.843z"/>
	<path style="fill:#8A6747;" d="M307.964,184.843c-4.445,0-8.049-3.604-8.049-8.049v-6.45c0-4.445,3.604-8.049,8.049-8.049
		s8.049,3.604,8.049,8.049v6.45C316.014,181.239,312.41,184.843,307.964,184.843z"/>
</g>
<g>
</g>
<g>
</g>
<g>
</g>
<g>
</g>
<g>
</g>
<g>
</g>
<g>
</g>
<g>
</g>
<g>
</g>
<g>
</g>
<g>
</g>
<g>
</g>
<g>
</g>
<g>
</g>
<g>
</g>
</svg>
