<?xml version="1.0" encoding="utf-8"?>
<!-- Generator: Adobe Illustrator 22.0.0, SVG Export Plug-In . SVG Version: 6.00 Build 0)  -->
<svg version="1.1" id="Layer_1" xmlns="http://www.w3.org/2000/svg" xmlns:xlink="http://www.w3.org/1999/xlink" x="0px" y="0px"
	 viewBox="0 0 128 128" style="enable-background:new 0 0 128 128;" xml:space="preserve">
<style type="text/css">
	.st0{display:none;fill:#2C3E50;}
	.st1{fill:#75B1C6;}
	.st2{fill:#003162;}
	.st3{fill:#1567B4;}
</style>
<path class="st0" d="M63,21c13.2,0,24,10.8,24,24S76.2,69,63,69S39,58.2,39,45S49.8,21,63,21 M63,19c-14.4,0-26,11.6-26,26
	s11.6,26,26,26s26-11.6,26-26S77.4,19,63,19L63,19z"/>
<g>
	<g>
		<g>
			<path class="st1" d="M92.5,38.8h-3V24.1c0-3.4-2.7-6.1-6.1-6.1H47.2c-3.4,0-6.1,2.7-6.1,6.1v14.8h-3V24.1c0-5,4.1-9.1,9.1-9.1
				h36.2c5,0,9.1,4.1,9.1,9.1V38.8z"/>
		</g>
	</g>
	<g>
		<g>
			<path class="st1" d="M83.5,38.8h-3V28.5c0-1.3-1-2.3-2.3-2.3H51.3c-1.3,0-2.3,1-2.3,2.3v10.3h-3V28.5c0-2.9,2.4-5.3,5.3-5.3h26.9
				c2.9,0,5.3,2.4,5.3,5.3V38.8z"/>
		</g>
	</g>
	<g>
		<g>
			<path class="st2" d="M113.3,113H15.5c-5,0-9.1-4.1-9.1-9.1V46.4c0-5,4.1-9.1,9.1-9.1h97.7c5,0,9.1,4.1,9.1,9.1v57.5
				C122.4,108.9,118.3,113,113.3,113z M15.5,40.3c-3.4,0-6.1,2.7-6.1,6.1v57.5c0,3.4,2.7,6.1,6.1,6.1h97.7c3.4,0,6.1-2.7,6.1-6.1
				V46.4c0-3.4-2.7-6.1-6.1-6.1H15.5z"/>
		</g>
	</g>
	<g>
		<path class="st2" d="M56.6,69.4c-24.5-2.9-46-25.6-46.9-26.6l2.2-2.1C12.1,41,33.6,63.6,57,66.4L56.6,69.4z"/>
	</g>
	<g>
		<path class="st2" d="M72.2,69.8l-0.4-3c23.4-2.8,44.9-25.4,45.1-25.6l2.2,2.1C118.2,44.2,96.6,67,72.2,69.8z"/>
	</g>
	<g>
		<path class="st3" d="M65.3,78.7c-5.3,0-9.6-4.3-9.6-9.6c0-5.3,4.3-9.6,9.6-9.6s9.6,4.3,9.6,9.6C74.9,74.4,70.6,78.7,65.3,78.7z
			 M65.3,62.6c-3.6,0-6.6,2.9-6.6,6.6s2.9,6.6,6.6,6.6s6.6-2.9,6.6-6.6S68.9,62.6,65.3,62.6z"/>
	</g>
</g>
</svg>
