<?xml version="1.0" encoding="iso-8859-1"?>
<!-- Generator: Adobe Illustrator 19.0.0, SVG Export Plug-In . SVG Version: 6.00 Build 0)  -->
<svg version="1.1" id="Capa_1" xmlns="http://www.w3.org/2000/svg" xmlns:xlink="http://www.w3.org/1999/xlink" x="0px" y="0px"
	 viewBox="0 0 512 512" style="enable-background:new 0 0 512 512;" xml:space="preserve">
<circle style="fill:#158AF4;" cx="256" cy="256" r="256"/>
<path style="fill:#086FBC;" d="M511.589,270.399l-114.97-114.97l-252.286,30.904L98.86,358.167l153.791,153.791
	c1.116,0.014,2.23,0.042,3.349,0.042C392.552,512,504.12,405.084,511.589,270.399z"/>
<path style="fill:#FFFFFF;" d="M98.86,136.167v222h80.578V217.731h163.129v140.436h80.907V214.443
	c0-43.23-35.045-78.276-78.276-78.276L98.86,136.167L98.86,136.167z"/>
<path style="fill:#E0E0E0;" d="M345.198,136.167h-86.323v81.564h83.692v140.436h80.907V214.443
	C423.473,171.212,388.428,136.167,345.198,136.167z"/>
<rect x="219.56" y="259.83" style="fill:#FFFFFF;" width="81.56" height="98.34"/>
<rect x="258.87" y="259.83" style="fill:#E0E0E0;" width="42.25" height="98.34"/>
<g>
</g>
<g>
</g>
<g>
</g>
<g>
</g>
<g>
</g>
<g>
</g>
<g>
</g>
<g>
</g>
<g>
</g>
<g>
</g>
<g>
</g>
<g>
</g>
<g>
</g>
<g>
</g>
<g>
</g>
</svg>
